<?xml version="1.0" standalone="no"?>
<!DOCTYPE svg PUBLIC "-//W3C//DTD SVG 20010904//EN"
 "http://www.w3.org/TR/2001/REC-SVG-20010904/DTD/svg10.dtd">
<svg version="1.0" xmlns="http://www.w3.org/2000/svg"
 width="512.000000pt" height="512.000000pt" viewBox="0 0 512.000000 512.000000"
 preserveAspectRatio="xMidYMid meet">

<g transform="translate(0.000000,512.000000) scale(0.100000,-0.100000)"
fill="#000000" stroke="none">
<path d="M0 4028 l0 -1093 36 40 c61 68 81 89 124 125 22 19 42 36 44 38 2 1
38 12 82 23 61 16 95 20 151 15 81 -6 109 -17 174 -63 26 -18 59 -33 74 -33
29 0 95 35 95 51 0 5 7 9 15 9 13 0 15 -7 9 -37 -4 -21 -11 -39 -15 -41 -5 -2
-9 -8 -9 -14 0 -17 -51 -120 -66 -136 -8 -7 -14 -18 -14 -23 0 -5 -7 -9 -15
-9 -9 0 -12 6 -8 15 3 10 1 15 -7 13 -9 -2 -17 17 -25 54 -21 100 -31 115
-102 150 -158 78 -312 27 -358 -119 -10 -32 -24 -64 -31 -71 -9 -9 -12 -32 -8
-80 7 -76 26 -102 75 -102 38 0 37 -19 0 -26 -16 -4 -39 -17 -51 -29 -21 -22
-22 -27 -11 -89 12 -71 63 -183 92 -204 10 -7 25 -19 33 -27 8 -8 28 -15 45
-15 17 0 31 -3 31 -7 0 -5 24 -7 52 -5 50 3 52 2 33 -14 -34 -27 -169 -3 -205
36 -3 4 -23 11 -45 18 -45 14 -107 63 -87 70 6 2 12 10 12 18 0 10 -9 12 -33
9 -40 -7 -57 9 -74 69 -8 31 -11 -258 -12 -1251 l-1 -1293 2560 0 2560 0 -1
1483 c-1 815 -5 1469 -9 1452 -5 -16 -13 -75 -19 -130 -6 -55 -14 -125 -17
-155 -11 -98 -6 -201 10 -217 10 -10 7 -35 -4 -28 -5 3 -10 -3 -10 -14 0 -12
5 -21 10 -21 6 0 10 -16 10 -35 0 -19 -4 -35 -9 -35 -15 0 -33 29 -27 45 4 10
-1 15 -16 15 -18 0 -20 4 -14 32 5 25 4 30 -5 21 -9 -9 -23 -1 -59 35 -62 63
-84 100 -71 116 14 16 4 26 -25 26 -27 0 -70 43 -79 79 -4 14 -15 31 -26 39
-10 7 -19 19 -19 26 0 7 -20 30 -45 52 -25 21 -45 45 -45 54 0 10 -8 26 -17
37 -17 19 -18 15 -19 -117 -1 -84 -6 -145 -13 -159 -15 -26 -5 -72 11 -50 7
10 8 8 3 -7 -9 -33 28 -70 85 -85 27 -7 50 -16 50 -20 0 -6 -120 -13 -170 -10
-24 2 -103 0 -124 -2 -44 -5 -21 19 34 37 58 18 60 20 60 52 0 19 5 34 10 34
6 0 10 17 10 38 0 21 6 44 13 51 7 9 7 11 1 8 -15 -9 -25 63 -11 80 5 7 7 20
3 28 -3 8 -1 26 4 39 5 14 5 26 1 28 -5 2 -5 25 -1 52 7 45 5 51 -19 74 -31
30 -81 52 -116 52 -14 0 -25 5 -25 10 0 6 55 10 144 10 142 0 144 0 150 -23 3
-13 16 -35 28 -49 13 -14 34 -40 48 -57 14 -17 33 -34 42 -37 10 -3 18 -10 18
-16 0 -6 11 -22 25 -37 58 -60 65 -69 65 -78 0 -5 9 -18 19 -30 11 -11 28 -38
39 -60 11 -22 27 -45 35 -52 13 -10 15 5 14 121 -2 98 1 136 11 143 10 8 10
21 2 60 -10 46 -14 52 -58 72 -26 12 -60 25 -77 30 -21 6 3 9 82 11 l113 3 0
1049 0 1050 -2560 0 -2560 0 0 -1092z m3655 953 c3 -5 1 -12 -5 -16 -5 -3 -10
1 -10 9 0 18 6 21 15 7z m-1344 -944 c-1 -12 -15 -9 -19 4 -3 6 1 10 8 8 6 -3
11 -8 11 -12z m-53 -280 c2 -10 -3 -17 -12 -17 -10 0 -16 9 -16 21 0 24 23 21
28 -4z m99 -14 c2 -6 -6 -13 -19 -17 -42 -11 -58 -7 -58 14 0 18 5 20 37 17
20 -2 39 -9 40 -14z m-217 -63 c0 -5 -4 -10 -10 -10 -5 0 -10 5 -10 10 0 6 5
10 10 10 6 0 10 -4 10 -10z m350 -91 c0 -5 -7 -9 -15 -9 -15 0 -20 12 -9 23 8
8 24 -1 24 -14z m-398 -18 c8 -10 25 -21 38 -23 17 -2 26 -10 28 -26 5 -32
-24 -39 -53 -12 l-23 22 -12 -22 c-13 -24 -47 -24 -63 1 -7 12 -4 24 13 47 27
36 53 41 72 13z m224 -26 c1 -47 -11 -55 -51 -37 -25 11 -35 23 -35 38 0 26
14 34 55 31 26 -2 30 -6 31 -32z m-57 -89 c9 -11 9 -19 -1 -35 -14 -23 -38
-27 -56 -9 -9 9 -7 17 10 35 25 27 31 28 47 9z m2461 -60 c0 -8 -7 -16 -15
-20 -15 -5 -21 14 -8 27 11 12 23 8 23 -7z m-3810 -53 c0 -25 -1 -26 -20 -8
-21 19 -18 35 6 35 9 0 14 -10 14 -27z m1269 -2 c26 -37 26 -44 0 -36 -15 5
-29 -1 -50 -21 -23 -22 -33 -26 -46 -18 -23 14 -28 34 -9 34 9 0 16 4 16 8 0
14 44 61 57 61 6 1 21 -12 32 -28z m2738 -137 c-3 -3 -12 -4 -19 -1 -8 3 -5 6
6 6 11 1 17 -2 13 -5z m-1940 -78 c-2 -6 -21 -11 -43 -12 -57 -1 -94 -19 -95
-46 -1 -13 -2 -30 -3 -38 -1 -14 30 -78 63 -130 34 -54 42 -66 63 -107 20 -39
26 -43 70 -49 26 -4 48 -10 48 -15 0 -10 -37 -22 -49 -15 -10 6 -19 -12 -31
-61 -7 -29 -5 -32 19 -38 21 -4 32 -17 46 -52 18 -42 20 -44 29 -24 6 13 15
20 24 16 9 -3 12 0 9 9 -6 14 30 123 49 147 6 8 17 30 24 49 8 19 28 55 46 80
43 62 64 121 64 179 0 61 -15 74 -112 95 -69 15 -14 24 149 22 121 -1 178 -5
180 -12 2 -7 -12 -15 -33 -19 -35 -6 -113 -60 -114 -78 0 -5 24 -7 53 -6 28 2
143 2 255 1 l202 -2 0 -32 c1 -39 23 -83 42 -83 12 0 13 -42 2 -55 -7 -6 -72
69 -79 91 -11 32 -96 59 -184 57 -93 -1 -97 -5 -86 -91 4 -28 2 -72 -3 -96
-15 -64 -8 -74 48 -69 63 6 144 56 147 89 0 13 1 29 2 35 1 7 10 14 21 17 17
4 20 0 21 -31 1 -21 1 -41 0 -46 -1 -5 -5 -51 -8 -102 -4 -70 -2 -98 8 -110
11 -13 10 -17 -2 -25 -27 -17 -44 -5 -41 28 3 26 -4 39 -35 68 -39 37 -48 40
-122 49 l-44 4 7 -59 6 -59 -28 7 c-22 5 -25 4 -16 -8 7 -8 14 -23 17 -34 4
-17 5 -16 6 5 l2 25 10 -24 c5 -14 12 -41 15 -60 8 -55 11 -61 39 -61 14 0 25
-4 25 -10 0 -6 -45 -10 -115 -10 -85 0 -115 3 -115 13 0 9 -3 8 -9 -2 -6 -10
-10 -10 -16 -1 -4 7 6 25 24 44 28 29 31 38 31 93 0 85 -12 111 -60 130 -48
19 -50 29 -11 38 52 11 68 34 76 107 6 54 4 70 -11 92 -32 51 -104 63 -104 19
0 -19 -78 -165 -95 -178 -7 -6 -16 -27 -20 -48 -4 -20 -18 -48 -31 -62 -13
-14 -24 -30 -24 -36 0 -5 -4 -9 -10 -9 -5 0 -18 -27 -27 -60 -10 -33 -24 -60
-30 -60 -8 0 -11 -10 -7 -30 4 -20 1 -34 -10 -45 -9 -9 -16 -23 -16 -31 0 -15
-23 -44 -34 -44 -3 0 -6 7 -6 15 0 23 -18 18 -25 -6 -5 -15 -2 -25 8 -31 15
-8 13 -38 -2 -38 -5 0 -16 17 -27 38 -10 20 -38 69 -62 109 -23 40 -45 87 -49
105 -3 18 -14 38 -23 45 -9 6 -22 30 -29 52 -14 49 -48 74 -92 69 -20 -2 -34
2 -36 10 -3 7 5 12 20 12 26 0 78 51 58 58 -5 2 -24 47 -41 100 -40 121 -50
142 -95 181 -27 23 -45 31 -75 31 -35 0 -56 10 -45 22 3 2 106 5 230 5 163 0
225 -3 222 -11z m-1818 -116 c23 -11 57 -32 75 -46 17 -15 45 -33 63 -41 25
-10 39 -28 63 -81 46 -98 45 -97 71 -100 38 -4 49 10 63 79 21 101 -10 165
-83 171 -50 4 -41 22 16 30 48 7 333 2 409 -8 41 -5 143 -63 176 -100 9 -11
22 -54 28 -96 12 -75 14 -78 40 -78 15 0 42 10 61 23 34 23 34 24 31 92 -2 38
-8 77 -13 86 -10 19 -86 59 -112 59 -9 0 -19 5 -22 10 -8 13 147 16 483 12
l102 -2 17 -42 c10 -24 17 -46 15 -50 -1 -5 2 -8 8 -8 5 0 17 -14 26 -31 29
-56 0 -51 -66 12 -36 34 -83 69 -105 79 -41 19 -175 33 -194 20 -12 -7 -24
-199 -15 -236 7 -28 55 -38 97 -20 46 19 111 74 112 94 3 45 6 53 15 47 5 -3
9 -35 9 -70 -1 -35 2 -69 6 -75 8 -14 -14 -170 -24 -170 -4 0 -12 17 -17 38
-6 20 -15 36 -22 34 -7 -1 -16 6 -19 15 -10 26 -33 41 -73 48 -19 3 -43 8 -53
11 -16 5 -18 -2 -17 -63 0 -37 1 -84 2 -103 1 -19 2 -50 2 -68 l-1 -34 76 2
c96 3 111 2 111 -9 0 -4 -51 -9 -112 -11 -62 -1 -139 -3 -171 -4 -37 -1 -63 4
-69 12 -8 10 -13 9 -23 -4 -8 -12 -20 -15 -43 -9 -31 6 -44 24 -19 26 69 4
111 40 109 94 -1 21 3 33 8 30 15 -9 12 5 -5 21 -8 9 -15 30 -15 47 0 45 -9
54 -59 66 l-43 9 5 -39 c4 -28 -1 -54 -13 -82 -56 -125 -116 -156 -318 -164
-118 -5 -135 -4 -152 12 -18 16 -25 14 -21 -7 0 -5 -40 -8 -90 -8 -65 0 -90 3
-87 12 4 10 18 14 85 21 13 1 18 6 13 11 -11 11 9 56 27 56 7 0 13 5 13 10 0
6 -4 10 -10 10 -5 0 -10 7 -10 15 0 8 4 15 9 15 18 0 -10 82 -37 105 -46 41
-101 25 -102 -29 0 -27 -53 -106 -67 -101 -7 2 -16 -7 -19 -20 -12 -50 -127
-119 -188 -114 -17 2 -37 -1 -45 -5 -9 -6 -12 -5 -9 5 3 8 11 14 19 15 8 0 27
6 42 12 16 7 30 12 33 12 15 0 66 70 74 104 6 23 15 52 20 66 9 27 8 59 -3 77
-4 6 -4 18 -1 27 3 9 2 22 -4 29 -5 6 -13 30 -16 52 -25 139 -118 221 -209
184 -39 -16 -107 -84 -107 -106 0 -18 -18 -79 -31 -105 -5 -10 -5 -20 1 -23 6
-3 10 -21 11 -38 0 -18 8 -68 17 -112 17 -75 22 -84 71 -132 29 -28 48 -54 43
-57 -14 -8 -42 4 -42 18 0 7 -7 21 -15 32 -14 18 -14 17 -5 -8 10 -30 -3 -37
-38 -19 -9 5 -33 16 -52 25 -19 9 -43 22 -53 28 -16 11 -21 9 -40 -17 -61 -85
-167 -157 -233 -158 -40 -1 -47 17 -8 21 15 2 44 15 65 28 21 13 42 24 47 24
20 0 90 72 106 109 18 39 18 41 -1 88 -11 26 -23 60 -27 75 -5 21 -15 30 -46
38 -41 11 -54 30 -21 30 11 0 26 7 35 15 8 8 20 15 26 15 7 0 10 8 7 20 -3 13
3 24 18 34 20 13 24 13 39 -2 9 -9 16 -11 16 -5 0 7 -4 15 -10 18 -31 19 7 92
70 138 76 54 239 73 319 37z m3204 11 c34 -2 12 -24 -28 -28 -39 -4 -75 -26
-75 -47 0 -6 -6 -23 -14 -37 -19 -38 -17 -79 7 -114 27 -38 47 -54 70 -55 31
0 13 -24 -25 -33 -46 -11 -64 -50 -59 -126 4 -74 34 -118 84 -126 20 -4 37
-10 37 -15 0 -10 -76 -24 -88 -16 -4 2 -34 6 -66 7 -31 1 -60 7 -63 12 -4 6 4
7 20 3 14 -3 29 -2 32 4 3 5 -3 10 -14 10 -11 0 -23 5 -26 10 -10 17 -45 12
-39 -5 4 -8 1 -15 -5 -15 -6 0 -10 -6 -9 -12 2 -7 -3 -13 -9 -12 -7 1 -36 2
-64 3 -36 1 -49 5 -46 14 2 6 11 11 20 9 31 -5 117 67 109 92 -2 5 2 12 9 17
9 5 6 16 -10 42 -11 19 -21 46 -21 60 0 18 -9 29 -34 41 -19 9 -39 16 -45 16
-6 0 -11 4 -11 9 0 12 64 20 71 9 8 -12 36 75 40 122 6 70 -40 139 -93 140
-51 0 -39 19 14 22 46 3 279 2 331 -1z m-1843 -91 c0 -5 -5 -10 -11 -10 -5 0
-7 5 -4 10 3 6 8 10 11 10 2 0 4 -4 4 -10z m1146 -37 c-10 -10 -19 5 -10 18 6
11 8 11 12 0 2 -7 1 -15 -2 -18z m-36 -16 c0 -5 -4 -5 -10 -2 -5 3 -10 14 -10
23 0 15 2 15 10 2 5 -8 10 -19 10 -23z m-999 -108 c-14 -5 -31 -15 -38 -21 -8
-6 -13 -6 -13 -1 0 12 38 32 60 32 8 0 4 -5 -9 -10z m1239 -29 c0 -11 -4 -20
-10 -20 -5 0 -10 9 -10 20 0 11 5 20 10 20 6 0 10 -9 10 -20z m18 -42 c-6 -18
-28 -21 -28 -4 0 9 7 16 16 16 9 0 14 -5 12 -12z m-1208 -98 c0 -5 -4 -10 -10
-10 -5 0 -9 -10 -8 -23 1 -13 -3 -36 -9 -53 -6 -16 -14 -41 -17 -56 -5 -22
-11 -27 -32 -26 -14 2 -30 10 -35 20 -13 24 -29 23 -29 -3 0 -11 -4 -17 -10
-14 -19 12 -10 33 22 46 24 10 33 10 36 1 5 -17 22 -15 22 3 0 8 -7 15 -15 15
-21 0 -19 14 6 36 12 10 27 31 35 46 14 27 44 39 44 18z m1290 0 c0 -5 -5 -10
-11 -10 -6 0 -8 -9 -4 -21 4 -12 0 -35 -8 -53 -9 -17 -19 -44 -22 -59 l-6 -28
-121 3 c-132 3 -175 21 -62 26 37 2 78 8 92 13 29 11 72 49 72 65 0 13 51 73
63 74 4 0 7 -4 7 -10z m-270 -40 c0 -5 -5 -10 -11 -10 -5 0 -7 5 -4 10 3 6 8
10 11 10 2 0 4 -4 4 -10z m-36 -15 c3 -8 1 -15 -4 -15 -6 0 -10 7 -10 15 0 8
2 15 4 15 2 0 6 -7 10 -15z m-276 -107 c-3 -7 -13 -13 -23 -13 -10 0 -20 6
-22 13 -3 7 5 12 22 12 17 0 25 -5 23 -12z m-186 -70 c-7 -7 -12 -8 -12 -2 0
14 12 26 19 19 2 -3 -1 -11 -7 -17z m-1832 -12 c0 -3 -4 -8 -10 -11 -5 -3 -10
-1 -10 4 0 6 5 11 10 11 6 0 10 -2 10 -4z m2450 0 c0 -3 -4 -8 -10 -11 -5 -3
-10 -1 -10 4 0 6 5 11 10 11 6 0 10 -2 10 -4z m191 -19 c-13 -13 -26 -3 -16
12 3 6 11 8 17 5 6 -4 6 -10 -1 -17z m-2349 -29 c-8 -8 -9 -4 -5 13 4 13 8 18
11 10 2 -7 -1 -18 -6 -23z m313 22 c3 -5 1 -10 -4 -10 -6 0 -11 5 -11 10 0 6
2 10 4 10 3 0 8 -4 11 -10z m35 -30 c0 -5 -2 -10 -4 -10 -3 0 -8 5 -11 10 -3
6 -1 10 4 10 6 0 11 -4 11 -10z m-250 -64 c0 -12 -5 -7 -19 24 -11 24 -11 24
3 6 9 -11 16 -24 16 -30z m-59 -43 c13 -16 12 -17 -3 -4 -10 7 -18 15 -18 17
0 8 8 3 21 -13z m359 2 c0 -8 -4 -15 -9 -15 -13 0 -22 16 -14 24 11 11 23 6
23 -9z m1435 -52 c-3 -16 -10 -32 -15 -37 -5 -5 -4 7 2 27 13 43 23 50 13 10z
m25 -43 c-6 -11 -13 -20 -16 -20 -2 0 0 9 6 20 6 11 13 20 16 20 2 0 0 -9 -6
-20z m-1700 -26 c0 -8 -4 -12 -10 -9 -5 3 -10 10 -10 16 0 5 5 9 10 9 6 0 10
-7 10 -16z m316 -44 c4 -42 3 -43 -9 -20 -7 14 -21 24 -30 24 -21 -2 -21 5 0
28 24 27 35 18 39 -32z m1357 25 c-3 -9 -8 -14 -10 -11 -3 3 -2 9 2 15 9 16
15 13 8 -4z m-1161 -70 c16 -21 23 -23 34 -14 8 6 25 13 38 14 13 2 33 6 45
10 38 12 88 -34 75 -69 -8 -20 -42 -21 -64 -1 -16 14 -20 14 -48 -2 -26 -15
-32 -15 -47 -3 -10 8 -28 13 -40 12 -29 -4 -36 8 -29 47 8 38 11 38 36 6z
m-822 -49 c0 -26 -6 -18 -14 19 -5 22 -4 26 4 15 5 -8 10 -24 10 -34z m1060
10 c0 -15 -14 -35 -21 -30 -15 9 -10 34 6 34 8 0 15 -2 15 -4z m-665 -26 c0
-22 -39 -19 -43 3 -3 15 1 18 20 15 12 -2 23 -10 23 -18z m55 -1 c0 -5 -7 -9
-15 -9 -15 0 -20 12 -9 23 8 8 24 -1 24 -14z m135 -87 c15 -39 26 -74 23 -77
-3 -3 -19 0 -36 6 -33 11 -40 27 -21 46 18 18 2 63 -21 63 -12 0 -20 7 -20 16
0 10 6 14 15 10 10 -3 15 1 15 11 0 27 14 3 45 -75z m250 48 c0 -18 -6 -26
-22 -28 -18 -3 -23 1 -23 21 0 28 9 39 30 35 9 -2 15 -14 15 -28z m-735 0 c0
-5 -4 -10 -10 -10 -5 0 -10 5 -10 10 0 6 5 10 10 10 6 0 10 -4 10 -10z m140
-31 c0 -5 -4 -9 -10 -9 -5 0 -10 7 -10 16 0 8 5 12 10 9 6 -3 10 -10 10 -16z
m490 11 c0 -5 -7 -10 -15 -10 -8 0 -15 5 -15 10 0 6 7 10 15 10 8 0 15 -4 15
-10z m-83 -31 c9 -9 8 -18 -4 -36 -18 -27 -33 -16 -33 25 0 24 19 29 37 11z
m-122 -54 c0 -13 -8 -21 -22 -23 -17 -3 -23 2 -23 16 0 10 3 22 7 26 13 13 38
1 38 -19z m1370 -25 c3 -5 2 -10 -4 -10 -5 0 -13 5 -16 10 -3 6 -2 10 4 10 5
0 13 -4 16 -10z m680 -510 c-3 -5 -10 -10 -16 -10 -5 0 -9 5 -9 10 0 6 7 10
16 10 8 0 12 -4 9 -10z m-3078 -76 c-3 -3 -12 -4 -19 -1 -8 3 -5 6 6 6 11 1
17 -2 13 -5z"/>
<path d="M2934 2514 c9 -8 16 -20 16 -25 0 -5 4 -9 10 -9 6 0 5 10 -2 25 -6
14 -18 25 -25 25 -12 0 -11 -3 1 -16z"/>
<path d="M2990 2431 c0 -5 7 -11 14 -14 10 -4 13 -1 9 9 -6 15 -23 19 -23 5z"/>
<path d="M1656 2898 c3 -56 9 -109 15 -119 5 -10 25 -23 44 -30 42 -16 44 -26
8 -35 -38 -10 -72 -53 -73 -91 0 -17 -6 -34 -12 -37 -9 -4 -9 -8 -2 -11 6 -4
9 -27 6 -60 -5 -67 3 -72 95 -57 54 9 71 17 99 46 19 19 34 38 34 41 0 4 6 21
14 38 17 37 36 126 36 165 0 15 -6 39 -14 54 -8 15 -10 28 -5 30 13 4 -16 86
-39 111 -28 31 -63 44 -139 50 l-72 6 5 -101z"/>
<path d="M1550 2860 c0 -5 5 -10 11 -10 5 0 7 5 4 10 -3 6 -8 10 -11 10 -2 0
-4 -4 -4 -10z"/>
<path d="M2006 2760 c7 -28 12 -35 18 -29 2 2 -2 15 -10 29 l-15 25 7 -25z"/>
<path d="M1250 2761 c0 -5 5 -13 10 -16 6 -3 10 -2 10 4 0 5 -4 13 -10 16 -5
3 -10 2 -10 -4z"/>
<path d="M2490 2731 c0 -6 5 -13 10 -16 6 -3 10 1 10 9 0 9 -4 16 -10 16 -5 0
-10 -4 -10 -9z"/>
<path d="M1315 2637 c-4 -10 -5 -21 -1 -24 10 -10 18 4 13 24 -4 17 -4 17 -12
0z"/>
<path d="M855 2540 c-3 -5 1 -10 9 -10 9 0 16 5 16 10 0 6 -4 10 -9 10 -6 0
-13 -4 -16 -10z"/>
<path d="M1505 2461 c-3 -5 -1 -12 4 -15 5 -3 11 1 15 9 6 16 -9 21 -19 6z"/>
<path d="M4195 2500 c3 -5 8 -10 11 -10 2 0 4 5 4 10 0 6 -5 10 -11 10 -5 0
-7 -4 -4 -10z"/>
<path d="M4850 2791 c0 -5 5 -13 10 -16 6 -3 10 -2 10 4 0 5 -4 13 -10 16 -5
3 -10 2 -10 -4z"/>
<path d="M61 2744 c0 -11 3 -14 6 -6 3 7 2 16 -1 19 -3 4 -6 -2 -5 -13z"/>
<path d="M4835 2670 c3 -5 8 -10 11 -10 2 0 4 5 4 10 0 6 -5 10 -11 10 -5 0
-7 -4 -4 -10z"/>
<path d="M4880 2672 c0 -12 19 -26 26 -19 2 2 -2 10 -11 17 -9 8 -15 8 -15 2z"/>
<path d="M121 2644 c0 -11 3 -14 6 -6 3 7 2 16 -1 19 -3 4 -6 -2 -5 -13z"/>
<path d="M4923 2642 c-10 -6 -9 -13 3 -30 21 -31 31 -27 26 8 -4 31 -9 35 -29
22z"/>
<path d="M4885 2610 c3 -5 8 -10 11 -10 2 0 4 5 4 10 0 6 -5 10 -11 10 -5 0
-7 -4 -4 -10z"/>
<path d="M5023 2534 c0 -18 2 -22 8 -13 11 18 11 39 0 39 -5 0 -8 -12 -8 -26z"/>
<path d="M4971 2494 c0 -11 3 -14 6 -6 3 7 2 16 -1 19 -3 4 -6 -2 -5 -13z"/>
</g>
</svg>
